<svg width="44" height="44" viewBox="0 0 44 44" fill="none" xmlns="http://www.w3.org/2000/svg">
<rect width="44" height="44" fill="#0B6C4F"/>
<path d="M20.3336 18.0272C21.0018 17.9829 21.1122 17.8407 21.1475 18.36C21.1625 18.5818 21.8542 18.785 22.1036 18.8784C22.5811 18.4535 22.8818 18.8296 23.4015 18.7359C24.7191 18.4986 24.5206 19.6667 24.9177 20.5215C25.1918 21.1113 25.5389 21.5113 25.8999 22.037C26.2449 21.9852 26.547 21.8862 26.8316 22.0677C27.3098 22.8618 25.4781 24.0777 25.2914 24.6834C24.9977 25.636 25.9989 26.2077 24.7642 26.9578L24.6866 27.6179C24.2832 28.0593 24.0878 28.6569 23.6183 29.1923C23.1103 29.4947 22.7871 29.4581 22.2064 29.4734C21.7955 28.4774 21.365 27.606 21.1929 26.539C21.5999 25.5825 21.3814 25.0308 20.808 24.2298C20.8231 23.9596 20.8683 23.6546 20.9025 23.3829C20.6057 23.3269 20.1752 23.1438 19.8822 23.0303C18.4125 23.5505 17.7971 23.4445 17.2558 21.8826C17.5744 20.6976 17.1486 20.0531 18.4124 19.3335L18.578 18.8141C18.7886 18.6139 19.0569 18.3932 19.2797 18.1998C19.6018 18.1699 20.0087 18.0855 20.3336 18.0272Z" fill="#0B3028"/>
<path d="M21.6043 6.06256C22.7814 5.97831 23.1966 5.95259 23.1968 7.29545L23.1854 7.31676C23.1324 7.41386 22.9351 7.72099 22.8339 7.75314C22.2472 7.96838 21.4091 7.83513 20.8222 7.97632C19.6053 8.26906 18.1476 8.70629 17.0329 9.23726C13.8874 10.7355 11.1679 13.426 9.50106 16.4525C9.46609 16.4775 9.43011 16.5011 9.39323 16.5232C9.01178 16.7496 8.65588 16.6404 8.26012 16.5357C7.602 15.4867 8.8599 14.0138 9.51561 13.1232C12.4631 9.11993 16.7029 6.81481 21.6043 6.06256Z" fill="white"/>
<path d="M24.9516 13.7615C25.3703 13.7275 26.0275 14.0288 26.3756 14.2354C28.0965 15.2562 29.4781 16.5822 30.3888 18.3709C30.7289 19.0388 30.8794 19.197 31.1021 19.9846C32.0294 23.2649 31.8187 26.2926 30.0899 29.2672C29.7999 29.7661 29.599 29.9459 29.0471 30.0861C27.6106 29.7923 28.2186 28.4787 28.8893 27.8349C29.06 27.671 29.3422 26.8823 29.4354 26.6232C29.927 25.2554 30.1561 23.8462 29.9287 22.3992C29.5182 19.7421 28.2652 17.5051 25.9619 16.0301C25.3026 15.608 23.5065 15.2725 24.2624 14.026C24.3882 13.8184 24.7257 13.7836 24.9516 13.7615Z" fill="#0B3028"/>
<path d="M18.6834 14.1974C19.1664 14.1974 19.5579 14.3931 19.6628 14.9061C19.7239 15.211 19.6313 15.5264 19.4148 15.7507C19.1591 16.0176 18.669 16.1662 18.333 16.3692C15.5957 18.0227 14.2305 20.7944 14.0474 23.9027C13.9626 25.3435 13.6666 26.8227 12.8056 27.9592C12.4474 28.432 12.039 29.163 11.4074 29.282C11.2462 29.2938 10.953 29.308 10.8152 29.2354C9.47701 28.5304 11.0822 27.4146 11.5112 26.774C12.6305 25.1968 12.2994 23.3231 12.6328 21.5732C12.9443 19.9387 13.8196 18.2386 14.8827 16.9672C15.9101 15.7385 17.1907 14.7781 18.6834 14.1974Z" fill="white"/>
<path d="M28.2405 11.9744C29.5791 11.8633 32.0537 14.9917 32.7 16.0637C34.1757 18.4994 34.9085 21.3091 34.8095 24.1513C34.7845 24.891 34.8961 25.8736 34.1725 26.2952C33.4368 26.4377 32.9322 26.0772 32.9832 25.2943C33.0764 23.8636 33.141 22.4878 32.8525 21.0701C32.3348 18.6128 31.1051 16.36 29.3153 14.5899C28.8849 14.1602 28.0944 13.6782 27.8648 13.3915C27.7261 13.2182 27.6652 12.9957 27.6966 12.7763C27.7485 12.3979 27.957 12.1937 28.2405 11.9744Z" fill="#D3A327"/>
<path d="M29.2573 8.83987L29.873 8.90428C30.3161 9.28253 31.2338 9.78434 31.7699 10.2333C34.1697 12.2434 35.7103 14.4823 36.84 17.4001C37.1227 18.1303 37.7688 20.0526 37.5344 20.8858C37.4621 21.1429 37.0436 21.2964 36.7926 21.3812C36.6512 21.3514 36.1834 21.2165 36.1269 21.117C35.8274 20.59 35.6425 19.4993 35.498 18.9322C34.7131 15.8547 32.7431 13.1517 30.1877 11.2726C29.6383 10.8687 27.8029 10.2451 28.4816 9.21753C28.6794 8.9181 28.9226 8.88593 29.2573 8.83987Z" fill="#D3A327"/>
<path d="M36.9632 23.2126C38.6609 23.0664 37.8133 26.3127 37.597 27.2332C36.9004 30.1969 34.6914 34.4376 31.9953 36.0091C31.6086 36.0343 31.1375 35.9736 30.9988 35.5377C30.7447 34.7388 31.5178 34.1699 32.0313 33.6894C34.3365 31.5319 35.766 28.5772 36.0821 25.4523C36.1359 24.9204 36.0796 24.3346 36.2596 23.8207C36.3953 23.4334 36.6094 23.3701 36.9632 23.2126Z" fill="white"/>
<path d="M32.9556 27.817C33.5231 27.7973 33.9817 28.4065 33.8003 28.8667C32.2043 32.9152 28.2336 36.4491 23.9468 37.1405C23.5252 37.14 23.1266 36.9754 23.0336 36.5121C22.8526 35.6096 23.715 35.4668 24.3848 35.2814C27.8431 34.3237 30.7641 31.5307 32.1732 28.2878C32.297 28.003 32.6779 27.8822 32.9556 27.817Z" fill="#D3A327"/>
<path d="M10.8172 23.1421C10.6451 23.9429 11.0832 25.5955 9.73994 25.4734C9.00315 25.4064 8.9047 24.8555 8.9699 24.2481C9.32199 20.9684 9.95383 18.0013 12.0559 15.3484C12.4689 14.8272 12.855 14.2137 13.3697 13.7851C13.8113 13.4145 14.5062 13.3201 14.8893 13.8256C14.9099 13.8528 14.9291 13.8812 14.9466 13.9104C14.964 13.9393 14.9798 13.9691 14.994 13.9996C15.2983 14.6543 14.6469 15.1022 14.2739 15.4883C12.2578 17.5755 11.2547 20.1252 10.8403 22.9021C10.8318 22.9728 10.8156 23.074 10.8172 23.1421Z" fill="white"/>
<path d="M23.4699 9.51392C24.0466 9.4082 25.0846 9.44699 25.6684 9.60224C26.5563 9.83834 26.6535 11.2292 25.6382 11.37C25.0162 11.4562 24.2565 11.3095 23.6101 11.2836C21.6954 11.2067 19.9549 11.6868 18.2334 12.4813C17.618 12.7268 16.8195 13.4232 16.1592 12.8549C15.9953 12.7126 15.8968 12.5099 15.8864 12.2936C15.8208 10.7754 21.0068 9.52507 22.2826 9.53965C22.656 9.54391 23.0915 9.53145 23.4699 9.51392Z" fill="white"/>
<path d="M15.845 26.2275C18.9858 25.9723 14.6145 32.5964 12.1332 33.2272C11.1894 33.2448 10.7773 32.484 11.3418 31.7193C11.6052 31.3562 12.1206 31.2133 12.454 30.9396C13.4608 30.1132 14.3617 29.1155 14.7934 27.8692C14.8838 27.6082 15.0032 27.3315 15.1016 27.0732C15.279 26.6078 15.3955 26.4208 15.845 26.2275Z" fill="white"/>
<path d="M21.5843 31.5884C22.0815 31.4732 22.4043 32.0138 22.4137 32.4146C22.4451 33.7568 19.1993 37.8434 17.9662 38C17.3249 37.8927 17.3036 37.7182 17.0417 37.1736C17.2838 36.0868 18.2788 35.6627 19.0828 34.7467C19.9075 33.807 20.3403 32.5377 20.9589 31.7421L21.5843 31.5884Z" fill="white"/>
<path d="M18.1141 29.7698C20.4118 29.5233 18.8958 31.7511 18.282 32.5746C17.3684 33.8004 16.2079 35.3163 14.7229 35.8725C14.3246 35.983 13.7941 35.7468 13.7218 35.3063C13.6407 34.8124 13.7493 34.6706 14.0095 34.2656C14.9715 33.8172 16.3557 32.3661 16.9606 31.4481C17.3186 30.9047 17.5566 30.1212 18.1141 29.7698Z" fill="white"/>
<path d="M7.27339 18.0678C8.53074 18.292 8.52359 19.2808 7.90066 20.1787C7.76206 20.254 7.50091 20.343 7.34519 20.4014C5.94984 20.3503 6.0259 19.1146 6.75861 18.2586L7.27339 18.0678Z" fill="white"/>
<path d="M25.6877 6.00234C26.6984 5.96952 26.7915 6.27801 26.9305 7.16693C26.8604 7.39483 26.7499 7.61413 26.6489 7.83102C26.5179 7.88521 26.2809 7.94246 26.1366 7.98202C25.5727 8.00818 25.1608 7.95009 24.979 7.32397C24.8948 7.03197 24.9327 6.71854 25.084 6.45471C25.2457 6.17118 25.3885 6.08676 25.6877 6.00234Z" fill="white"/>
<path d="M21.6445 13.3049C21.7035 13.3039 21.7625 13.3049 21.8214 13.3079C22.2598 13.3318 22.4884 13.6337 22.7626 13.9357C22.7802 14.1683 22.7758 14.4711 22.779 14.7097C22.4901 15.1016 22.4444 15.1998 21.9809 15.3459C20.584 15.4009 20.327 13.9259 21.6445 13.3049Z" fill="#0B3028"/>
<path d="M25.2492 31.1994C26.6044 31.1898 26.6013 33.0681 25.3196 33.1643C24.6346 33.0472 24.5824 32.8492 24.2762 32.2812C24.4599 31.6629 24.5943 31.3797 25.2492 31.1994Z" fill="white"/>
<path d="M6.58965 22.5376C7.04268 22.3832 7.53615 22.621 7.69508 23.0705C7.85402 23.5199 7.61897 24.0127 7.16853 24.1745C6.71287 24.3382 6.21046 24.101 6.04968 23.6464C5.8889 23.1918 6.13136 22.6939 6.58965 22.5376Z" fill="white"/>
<path d="M26.9444 25.9152C26.9828 25.9501 27.0283 26.0225 27.0597 26.0674C27.1429 26.4371 26.8303 27.3139 26.6504 27.6696C26.4651 28.036 26.4043 28.1066 26.0313 28.2387C25.685 27.7239 25.7827 27.4842 25.859 26.8797C26.1858 26.5041 26.6023 26.3364 26.9444 25.9152Z" fill="#0B3028"/>
</svg>
