<svg width="141" height="96" viewBox="0 0 141 96" fill="none" xmlns="http://www.w3.org/2000/svg">
<mask id="mask0_605_25652" style="mask-type:luminance" maskUnits="userSpaceOnUse" x="1" y="1" width="136" height="32">
<path d="M1.95898 1.49902L12.0164 20.6599L136.755 32.9125C136.755 32.9125 136.624 31.1528 135.579 29.3931L1.95898 1.49902Z" fill="white"/>
</mask>
<g mask="url(#mask0_605_25652)">
<path d="M136.755 1.49902H1.95898V32.9125H136.755V1.49902Z" fill="url(#paint0_linear_605_25652)"/>
</g>
<mask id="mask1_605_25652" style="mask-type:luminance" maskUnits="userSpaceOnUse" x="15" y="26" width="123" height="15">
<path d="M15.0859 26.395L20.3759 36.3013L136.036 40.0162C136.036 40.0162 137.408 37.67 136.885 34.5417L15.0859 26.395Z" fill="white"/>
</mask>
<g mask="url(#mask1_605_25652)">
<path d="M137.343 26.395H15.0859V40.0814H137.343V26.395Z" fill="url(#paint1_linear_605_25652)"/>
</g>
<mask id="mask2_605_25652" style="mask-type:luminance" maskUnits="userSpaceOnUse" x="23" y="41" width="113" height="16">
<path d="M23.0547 41.7109L30.6957 56.3097L129.18 46.4034C129.18 46.4034 130.944 46.2079 132.315 45.5562C133.948 44.7741 135.254 41.7109 135.254 41.7109H23.0547Z" fill="white"/>
</mask>
<g mask="url(#mask2_605_25652)">
<path d="M135.319 41.7109H23.0547V56.3097H135.319V41.7109Z" fill="url(#paint2_linear_605_25652)"/>
</g>
<mask id="mask3_605_25652" style="mask-type:luminance" maskUnits="userSpaceOnUse" x="1" y="1" width="137" height="92">
<path d="M137.342 1.49902H1.95898V92.0245H137.342V1.49902Z" fill="white"/>
</mask>
<g mask="url(#mask3_605_25652)">
<path d="M133.816 26.8513L94.3047 17.7271H133.751C133.751 17.7271 131.791 23.4623 133.816 26.8513Z" fill="#B70E0C"/>
</g>
<mask id="mask4_605_25652" style="mask-type:luminance" maskUnits="userSpaceOnUse" x="1" y="1" width="137" height="92">
<path d="M137.342 1.49902H1.95898V92.0245H137.342V1.49902Z" fill="white"/>
</mask>
<g mask="url(#mask4_605_25652)">
<path d="M39.1194 63.6089H37.6827V71.6904C37.6827 72.8635 36.8337 74.0366 35.005 74.0366C33.1764 74.0366 32.3274 72.8635 32.3274 71.6904V63.6089H30.8906V71.6252C30.8906 73.8411 32.5233 75.2749 35.005 75.2749C37.4867 75.2749 39.1194 73.8411 39.1194 71.6252V63.6089Z" fill="#003955"/>
</g>
<mask id="mask5_605_25652" style="mask-type:luminance" maskUnits="userSpaceOnUse" x="1" y="1" width="137" height="92">
<path d="M137.342 1.49902H1.95898V92.0245H137.342V1.49902Z" fill="white"/>
</mask>
<g mask="url(#mask5_605_25652)">
<path d="M51.1362 75.1445L47.1524 67.9755L50.7443 63.6089H49.0463L44.4094 69.4093V63.6089H42.9727V75.1445H44.4094V71.2993L46.1727 69.1486L49.5035 75.1445H51.1362Z" fill="#003955"/>
</g>
<mask id="mask6_605_25652" style="mask-type:luminance" maskUnits="userSpaceOnUse" x="1" y="1" width="137" height="92">
<path d="M137.342 1.49902H1.95898V92.0245H137.342V1.49902Z" fill="white"/>
</mask>
<g mask="url(#mask6_605_25652)">
<path d="M66.6784 71.6903V71.6252L65.3722 71.3645V71.4296C65.111 72.5376 64.5232 74.1017 62.6946 74.1017C60.6701 74.1017 59.5598 72.4072 59.5598 69.4093C59.5598 66.4765 60.6048 64.7168 62.4334 64.7168C63.9355 64.7168 64.7192 65.4337 65.1763 67.2586V67.3237L66.4825 66.9327V66.8675C65.96 64.6516 64.5885 63.4785 62.564 63.4785C59.7557 63.4785 58.123 65.6292 58.123 69.4093C58.123 73.1893 59.7557 75.34 62.564 75.34C64.7192 75.2748 66.0906 74.1017 66.6784 71.6903Z" fill="#003955"/>
</g>
<mask id="mask7_605_25652" style="mask-type:luminance" maskUnits="userSpaceOnUse" x="1" y="1" width="137" height="92">
<path d="M137.342 1.49902H1.95898V92.0245H137.342V1.49902Z" fill="white"/>
</mask>
<g mask="url(#mask7_605_25652)">
<path d="M76.0177 68.4969H70.7278V63.6089H69.291V75.1445H70.7278V69.7352H76.0177V75.1445H77.4545V63.6089H76.0177V68.4969Z" fill="#003955"/>
</g>
<mask id="mask8_605_25652" style="mask-type:luminance" maskUnits="userSpaceOnUse" x="1" y="1" width="137" height="92">
<path d="M137.342 1.49902H1.95898V92.0245H137.342V1.49902Z" fill="white"/>
</mask>
<g mask="url(#mask8_605_25652)">
<path d="M85.3567 63.6089H83.3322L79.7402 75.1445H81.2423L82.2872 71.56H86.271L87.316 75.1445H88.818L85.3567 63.6089ZM84.3771 64.6517L85.9445 70.3217H82.6791L84.3771 64.6517Z" fill="#003955"/>
</g>
<mask id="mask9_605_25652" style="mask-type:luminance" maskUnits="userSpaceOnUse" x="1" y="1" width="137" height="92">
<path d="M137.342 1.49902H1.95898V92.0245H137.342V1.49902Z" fill="white"/>
</mask>
<g mask="url(#mask9_605_25652)">
<path d="M96.2642 72.668L93.4559 63.6741L93.3906 63.6089H91.3008V75.1445H92.6069V65.0427L95.6764 75.0794L95.7417 75.1445H96.852L99.9214 65.0427V75.1445H101.228V63.6089H99.0724L96.2642 72.668Z" fill="#003955"/>
</g>
<mask id="mask10_605_25652" style="mask-type:luminance" maskUnits="userSpaceOnUse" x="1" y="1" width="137" height="92">
<path d="M137.342 1.49902H1.95898V92.0245H137.342V1.49902Z" fill="white"/>
</mask>
<g mask="url(#mask10_605_25652)">
<path d="M112.787 72.0165C112.787 70.6478 111.938 69.5399 110.697 69.1489C111.873 68.6926 112.46 67.7802 112.46 66.5419C112.46 64.8474 111.089 63.6743 109.195 63.6743H104.885V75.21H108.542C112.069 75.1448 112.787 73.4503 112.787 72.0165ZM108.673 73.9065H106.387V69.7354H108.477C110.24 69.7354 111.35 70.5827 111.35 71.9513C111.35 73.2548 110.501 73.9065 108.673 73.9065ZM108.477 68.4971H106.322V64.8474H108.934C110.371 64.8474 111.024 65.434 111.024 66.6723C111.089 67.5195 110.371 68.4971 108.477 68.4971Z" fill="#003955"/>
</g>
<mask id="mask11_605_25652" style="mask-type:luminance" maskUnits="userSpaceOnUse" x="1" y="1" width="137" height="92">
<path d="M137.342 1.49902H1.95898V92.0245H137.342V1.49902Z" fill="white"/>
</mask>
<g mask="url(#mask11_605_25652)">
<path d="M123.301 73.9062H117.423V69.7352H121.342V68.4969H117.423V64.8472H122.974V63.6089H115.986V75.1445H123.301V73.9062Z" fill="#003955"/>
</g>
<mask id="mask12_605_25652" style="mask-type:luminance" maskUnits="userSpaceOnUse" x="1" y="1" width="137" height="92">
<path d="M137.342 1.49902H1.95898V92.0245H137.342V1.49902Z" fill="white"/>
</mask>
<g mask="url(#mask12_605_25652)">
<path d="M131.335 69.67C132.771 69.1486 133.555 68.1058 133.555 66.672C133.555 64.7168 132.118 63.6089 129.637 63.6089H125.914V75.1445H127.351V69.9959H129.898L132.184 75.1445H133.751L131.335 69.67ZM127.416 64.8472H129.637C131.465 64.8472 132.249 65.4337 132.249 66.7372C132.249 68.1058 131.4 68.7576 129.702 68.7576H127.481V64.8472H127.416Z" fill="#003955"/>
</g>
<mask id="mask13_605_25652" style="mask-type:luminance" maskUnits="userSpaceOnUse" x="1" y="1" width="137" height="92">
<path d="M137.342 1.49902H1.95898V92.0245H137.342V1.49902Z" fill="white"/>
</mask>
<g mask="url(#mask13_605_25652)">
<path d="M54.0744 84.9204C52.5723 84.399 51.1355 83.8776 51.1355 82.7045C51.1355 81.5314 51.9845 80.8797 53.4213 80.8797C54.8581 80.8797 55.903 81.6617 56.2295 82.9V82.9652L57.5357 82.7045V82.6393C56.8826 80.7493 55.4458 79.7065 53.4213 79.7065C51.2661 79.7065 49.6987 81.01 49.6987 82.8348C49.6987 84.8552 51.5927 85.5069 53.4866 86.2239C55.1193 86.8104 56.6214 87.3318 56.6214 88.7656C56.6214 90.0691 55.5765 90.8511 53.9438 90.8511C52.4417 90.8511 51.3967 90.0691 50.7437 88.4397V88.3746L49.4375 88.8308V88.8959C50.1559 90.4601 51.2008 92.0243 53.8784 92.0243C57.6663 92.0243 58.0582 89.5477 58.0582 88.5049C58.0582 86.3542 55.903 85.6373 54.0744 84.9204Z" fill="#003955"/>
</g>
<mask id="mask14_605_25652" style="mask-type:luminance" maskUnits="userSpaceOnUse" x="1" y="1" width="137" height="92">
<path d="M137.342 1.49902H1.95898V92.0245H137.342V1.49902Z" fill="white"/>
</mask>
<g mask="url(#mask14_605_25652)">
<path d="M68.3781 84.9858H62.631V79.9023H61.1289V91.8942H62.631V86.2241H68.3781V91.8942H69.8802V79.9023H68.3781V84.9858Z" fill="#003955"/>
</g>
<mask id="mask15_605_25652" style="mask-type:luminance" maskUnits="userSpaceOnUse" x="1" y="1" width="137" height="92">
<path d="M137.342 1.49902H1.95898V92.0245H137.342V1.49902Z" fill="white"/>
</mask>
<g mask="url(#mask15_605_25652)">
<path d="M75.4954 79.9023H74.0586V91.8942H75.4954V79.9023Z" fill="#003955"/>
</g>
<mask id="mask16_605_25652" style="mask-type:luminance" maskUnits="userSpaceOnUse" x="1" y="1" width="137" height="92">
<path d="M137.342 1.49902H1.95898V92.0245H137.342V1.49902Z" fill="white"/>
</mask>
<g mask="url(#mask16_605_25652)">
<path d="M83.9861 79.9023H79.6758V91.8942H81.1126V86.6152H83.2677C86.2066 86.6152 87.8393 85.4421 87.8393 83.2913C87.774 81.0755 86.4025 79.9023 83.9861 79.9023ZM83.3983 85.3769H81.1126V81.0755H83.6596C85.4229 81.0755 86.3372 81.7924 86.3372 83.2262C86.3372 84.7252 85.4882 85.3769 83.3983 85.3769Z" fill="#003955"/>
</g>
<mask id="mask17_605_25652" style="mask-type:luminance" maskUnits="userSpaceOnUse" x="1" y="1" width="137" height="92">
<path d="M137.342 1.49902H1.95898V92.0245H137.342V1.49902Z" fill="white"/>
</mask>
<g mask="url(#mask17_605_25652)">
<path d="M94.7615 79.9023H90.4512V91.8942H91.8879V86.6152H94.0431C96.982 86.6152 98.6147 85.4421 98.6147 83.2913C98.5494 81.0755 97.1779 79.9023 94.7615 79.9023ZM94.1084 85.3769H91.8226V81.0755H94.435C96.1983 81.0755 97.1126 81.7924 97.1126 83.2262C97.1126 84.7252 96.1983 85.3769 94.1084 85.3769Z" fill="#003955"/>
</g>
<mask id="mask18_605_25652" style="mask-type:luminance" maskUnits="userSpaceOnUse" x="1" y="1" width="137" height="92">
<path d="M137.342 1.49902H1.95898V92.0245H137.342V1.49902Z" fill="white"/>
</mask>
<g mask="url(#mask18_605_25652)">
<path d="M102.991 79.9023H101.555V91.8942H102.991V79.9023Z" fill="#003955"/>
</g>
<mask id="mask19_605_25652" style="mask-type:luminance" maskUnits="userSpaceOnUse" x="1" y="1" width="137" height="92">
<path d="M137.342 1.49902H1.95898V92.0245H137.342V1.49902Z" fill="white"/>
</mask>
<g mask="url(#mask19_605_25652)">
<path d="M114.681 89.0266L109.325 79.9023H107.301V91.8942H108.607V81.3362L114.811 91.829V91.8942H115.987V79.9023H114.681V89.0266Z" fill="#003955"/>
</g>
<mask id="mask20_605_25652" style="mask-type:luminance" maskUnits="userSpaceOnUse" x="1" y="1" width="137" height="92">
<path d="M137.342 1.49902H1.95898V92.0245H137.342V1.49902Z" fill="white"/>
</mask>
<g mask="url(#mask20_605_25652)">
<path d="M123.824 80.9451C125.326 80.9451 126.306 81.7923 126.828 83.552V83.6172L128.2 83.3565V83.2913C127.481 80.9451 126.044 79.772 123.759 79.772C122.322 79.772 121.081 80.2934 120.297 81.271C119.383 82.3137 118.926 83.8779 118.926 85.8982C118.926 87.9186 119.383 89.4828 120.297 90.5255C121.146 91.5031 122.322 92.0245 123.759 92.0245C125.195 92.0245 126.371 91.5683 126.959 90.7862V91.829H128.2V86.0286H123.954V87.2669H126.697V88.2445C126.697 89.4828 125.914 90.8514 123.824 90.8514C122.518 90.8514 120.363 90.1997 120.363 85.8982C120.363 81.5316 122.518 80.9451 123.824 80.9451Z" fill="#003955"/>
</g>
<mask id="mask21_605_25652" style="mask-type:luminance" maskUnits="userSpaceOnUse" x="1" y="1" width="137" height="92">
<path d="M137.342 1.49902H1.95898V92.0245H137.342V1.49902Z" fill="white"/>
</mask>
<g mask="url(#mask21_605_25652)">
<path d="M35.0043 84.4644C33.0451 84.4644 31.6736 86.1588 31.2164 88.2444C30.7593 90.3299 31.3471 92.0244 33.3716 92.0244C35.3309 92.0244 36.7023 90.3299 37.1595 88.2444C37.6166 86.1588 37.0289 84.4644 35.0043 84.4644ZM36.1799 88.2444C35.788 90.1344 34.7431 91.1772 33.5675 91.1772C32.392 91.1772 31.8042 90.1344 32.2614 88.2444C32.6532 86.3544 33.6982 85.3116 34.8737 85.3116C36.0492 85.3116 36.5717 86.3544 36.1799 88.2444Z" fill="#003955"/>
</g>
<mask id="mask22_605_25652" style="mask-type:luminance" maskUnits="userSpaceOnUse" x="1" y="1" width="137" height="92">
<path d="M137.342 1.49902H1.95898V92.0245H137.342V1.49902Z" fill="white"/>
</mask>
<g mask="url(#mask22_605_25652)">
<path d="M40.5552 83.8128L40.3593 84.6601H39.1184L38.9225 85.5073H40.1633L38.7266 91.8943H39.7062L41.143 85.5073H42.7104L42.9063 84.6601H41.3389L41.6001 83.6173C41.796 82.8352 42.0573 82.5745 42.7757 82.5745C42.9716 82.5745 43.2328 82.6397 43.494 82.6397L43.69 81.7273C43.4287 81.7273 43.1022 81.6621 42.841 81.6621C41.6001 81.6621 40.947 82.0532 40.5552 83.8128Z" fill="#003955"/>
</g>
<defs>
<linearGradient id="paint0_linear_605_25652" x1="5.89353" y1="17.2145" x2="137.64" y2="17.2145" gradientUnits="userSpaceOnUse">
<stop stop-color="#003955"/>
<stop offset="0.3301" stop-color="#005C7A"/>
<stop offset="1" stop-color="#80ACC0"/>
</linearGradient>
<linearGradient id="paint1_linear_605_25652" x1="5.89341" y1="33.2352" x2="137.64" y2="33.2352" gradientUnits="userSpaceOnUse">
<stop stop-color="#003955"/>
<stop offset="0.3301" stop-color="#005C7A"/>
<stop offset="1" stop-color="#80ACC0"/>
</linearGradient>
<linearGradient id="paint2_linear_605_25652" x1="5.89494" y1="48.9973" x2="137.641" y2="48.9973" gradientUnits="userSpaceOnUse">
<stop stop-color="#003955"/>
<stop offset="0.3301" stop-color="#005C7A"/>
<stop offset="1" stop-color="#80ACC0"/>
</linearGradient>
</defs>
</svg>
